<svg width="24" height="18" viewBox="0 0 24 18" fill="none" xmlns="http://www.w3.org/2000/svg">
<path d="M22.979 2.68872C22.2619 1.45216 20.369 1.17372 17.4947 1.87685C16.1639 0.847886 14.5713 0.212763 12.8977 0.0436279C11.2241 -0.125507 9.53655 0.178126 8.02686 0.920035C6.51717 1.66194 5.2458 2.81239 4.35721 4.24067C3.46861 5.66896 2.99839 7.31783 2.99998 8.99997C3.0001 9.38581 3.02452 9.77126 3.07311 10.154C0.477168 12.8437 0.514668 14.4375 1.02186 15.3112C1.49998 16.14 2.49748 16.5 3.80998 16.5C4.72125 16.4811 5.62715 16.3553 6.50904 16.125C7.83993 17.1529 9.43237 17.7872 11.1056 17.9556C12.7788 18.1241 14.4657 17.8201 15.9748 17.0781C17.4839 16.3361 18.7547 15.1858 19.643 13.7579C20.5312 12.33 21.0014 10.6816 21 8.99997C21.0002 8.61602 20.9761 8.23244 20.9278 7.85153C22.0997 6.63278 22.8797 5.47497 23.145 4.48404C23.3278 3.79779 23.2725 3.19404 22.979 2.68872ZM12 1.49997C13.6987 1.50172 15.3466 2.07928 16.6747 3.13838C18.0029 4.19747 18.9327 5.67552 19.3125 7.33122C17.7131 8.83685 15.5484 10.3809 13.4934 11.5622C10.9106 13.0443 8.66998 13.9687 6.88311 14.475C5.78255 13.4485 5.01651 12.1145 4.68473 10.6466C4.35294 9.1787 4.47077 7.64491 5.02288 6.24491C5.57499 4.84491 6.5358 3.64356 7.78023 2.79726C9.02465 1.95096 10.495 1.49891 12 1.49997ZM2.31936 14.5584C2.18248 14.3231 2.25842 13.8797 2.52748 13.3397C2.79355 12.8337 3.11727 12.3603 3.49217 11.9287C3.86379 13.0054 4.43643 14.0018 5.17967 14.865C3.56248 15.1368 2.55373 14.9634 2.31936 14.5584ZM12 16.5C10.7354 16.5013 9.49134 16.1806 8.38498 15.5681C10.4157 14.8499 12.3751 13.9441 14.2378 12.8625C16.2609 11.7009 18.0515 10.4418 19.4944 9.19872C19.4409 11.1517 18.6282 13.0069 17.2288 14.3702C15.8294 15.7335 13.9537 16.4975 12 16.5ZM21.6956 4.09591C21.5362 4.68747 21.1153 5.36435 20.5115 6.07685C20.1409 4.99884 19.5682 4.00136 18.824 3.13779C20.1562 2.91747 21.39 2.93435 21.6834 3.44153C21.7678 3.58872 21.7725 3.80904 21.6956 4.09591Z" fill="#020202"/>
</svg>
