<svg width="24" height="25" viewBox="0 0 24 25" fill="none" xmlns="http://www.w3.org/2000/svg">
<path d="M6.19003 10.61L5.32703 10.16C5.2571 10.1236 5.1794 10.1046 5.10053 10.1046C5.02167 10.1046 4.94397 10.1236 4.87403 10.16L2.85903 11.21C2.7791 11.2517 2.68922 11.2706 2.59926 11.2646C2.5093 11.2586 2.42273 11.228 2.34903 11.176C2.27626 11.1244 2.21955 11.0533 2.18541 10.9708C2.15126 10.8884 2.14108 10.798 2.15603 10.71L2.54303 8.46404C2.55611 8.38832 2.55046 8.31056 2.52658 8.23752C2.5027 8.16449 2.46132 8.09841 2.40603 8.04504L0.762034 6.45404C0.698288 6.39235 0.653218 6.31394 0.631994 6.2278C0.61077 6.14166 0.614249 6.05129 0.642034 5.96704C0.6705 5.8824 0.721966 5.80735 0.79067 5.75031C0.859374 5.69326 0.942602 5.65646 1.03103 5.64404L3.29403 5.31704C3.37137 5.30606 3.44489 5.27648 3.50829 5.23085C3.57168 5.18522 3.62307 5.12489 3.65803 5.05504L4.66803 3.02104C4.70839 2.94058 4.77039 2.87297 4.84705 2.8258C4.92372 2.77864 5.01202 2.75379 5.10203 2.75404M17.546 10.61L18.409 10.159C18.479 10.1226 18.5567 10.1036 18.6355 10.1036C18.7144 10.1036 18.7921 10.1226 18.862 10.159L20.877 11.21C20.957 11.2517 21.0468 11.2706 21.1368 11.2646C21.2268 11.2586 21.3133 11.228 21.387 11.176C21.4598 11.1244 21.5165 11.0533 21.5507 10.9708C21.5848 10.8884 21.595 10.798 21.58 10.71L21.193 8.46404C21.18 8.38832 21.1856 8.31056 21.2095 8.23752C21.2334 8.16449 21.2748 8.09841 21.33 8.04504L22.974 6.45004C23.0378 6.38835 23.0829 6.30994 23.1041 6.2238C23.1253 6.13766 23.1218 6.04729 23.094 5.96304C23.0656 5.8784 23.0141 5.80335 22.9454 5.74631C22.8767 5.68926 22.7935 5.65246 22.705 5.64004L20.442 5.31304C20.3647 5.30206 20.2912 5.27248 20.2278 5.22685C20.1644 5.18122 20.113 5.12089 20.078 5.05104L19.068 3.02104C19.0277 2.94058 18.9657 2.87297 18.889 2.8258C18.8123 2.77864 18.724 2.75379 18.634 2.75404M16.895 23.753C16.2682 23.0366 15.4955 22.4625 14.6287 22.0691C13.7619 21.6757 12.8209 21.4722 11.869 21.4722C10.9171 21.4722 9.9762 21.6757 9.10937 22.0691C8.24254 22.4625 7.46983 23.0366 6.84303 23.753M11.434 1.52704C11.4745 1.44668 11.5366 1.37914 11.6132 1.33194C11.6898 1.28475 11.778 1.25977 11.868 1.25977C11.958 1.25977 12.0463 1.28475 12.1229 1.33194C12.1995 1.37914 12.2615 1.44668 12.302 1.52704L13.311 3.56104C13.3459 3.63077 13.3971 3.69101 13.4603 3.73664C13.5236 3.78226 13.5969 3.81191 13.674 3.82304L15.938 4.15004C16.0265 4.16246 16.1097 4.19926 16.1784 4.25631C16.2471 4.31335 16.2986 4.3884 16.327 4.47304C16.3549 4.55736 16.3584 4.64785 16.337 4.73404C16.3156 4.82023 16.2702 4.89859 16.206 4.96004L14.568 6.55404C14.5127 6.60741 14.4712 6.67346 14.4472 6.74647C14.4232 6.81948 14.4173 6.89725 14.43 6.97304L14.818 9.22004C14.8327 9.30795 14.8222 9.39821 14.7879 9.48045C14.7536 9.5627 14.6968 9.63361 14.624 9.68504C14.5507 9.73738 14.4643 9.76835 14.3745 9.77453C14.2846 9.78071 14.1948 9.76185 14.115 9.72004L12.094 8.66604C12.0244 8.62909 11.9468 8.60977 11.868 8.60977C11.7892 8.60977 11.7116 8.62909 11.642 8.66604L9.62603 9.72004C9.54625 9.76185 9.45644 9.78071 9.36658 9.77453C9.27673 9.76835 9.19034 9.73738 9.11703 9.68504C9.04425 9.63361 8.98745 9.5627 8.95313 9.48045C8.91882 9.39821 8.90839 9.30795 8.92303 9.22004L9.31103 6.97304C9.32381 6.89725 9.31792 6.81948 9.29387 6.74647C9.26983 6.67346 9.22835 6.60741 9.17303 6.55404L7.53003 4.96004C7.46591 4.89859 7.42052 4.82023 7.3991 4.73404C7.37769 4.64785 7.38113 4.55736 7.40903 4.47304C7.4375 4.3884 7.48897 4.31335 7.55767 4.25631C7.62637 4.19926 7.7096 4.16246 7.79803 4.15004L10.062 3.82304C10.1392 3.81191 10.2125 3.78226 10.2757 3.73664C10.3389 3.69101 10.3902 3.63077 10.425 3.56104L11.434 1.52704ZM7.74303 15.846C7.74303 16.9401 8.17763 17.9893 8.95122 18.7629C9.72481 19.5364 10.774 19.971 11.868 19.971C12.9621 19.971 14.0113 19.5364 14.7849 18.7629C15.5584 17.9893 15.993 16.9401 15.993 15.846C15.993 14.752 15.5584 13.7028 14.7849 12.9292C14.0113 12.1556 12.9621 11.721 11.868 11.721C10.774 11.721 9.72481 12.1556 8.95122 12.9292C8.17763 13.7028 7.74303 14.752 7.74303 15.846Z" stroke="white" stroke-linecap="round" stroke-linejoin="round"/>
</svg>
