<svg width="22" height="22" viewBox="0 0 22 22" fill="none" xmlns="http://www.w3.org/2000/svg">
<path d="M17.15 11.4724L12.3144 9.68555L10.5332 4.84617C10.4277 4.55961 10.2368 4.31229 9.98638 4.1376C9.73592 3.9629 9.43791 3.86924 9.13254 3.86924C8.82718 3.86924 8.52916 3.9629 8.27871 4.1376C8.02825 4.31229 7.8374 4.55961 7.73192 4.84617L5.93942 9.68555L1.10004 11.4668C0.813478 11.5723 0.566163 11.7631 0.391468 12.0136C0.216774 12.264 0.123108 12.5621 0.123108 12.8674C0.123108 13.1728 0.216774 13.4708 0.391468 13.7213C0.566163 13.9717 0.813478 14.1626 1.10004 14.268L5.93942 16.0605L7.72067 20.8999C7.82615 21.1865 8.017 21.4338 8.26746 21.6085C8.51791 21.7832 8.81593 21.8769 9.12129 21.8769C9.42666 21.8769 9.72467 21.7832 9.97513 21.6085C10.2256 21.4338 10.4164 21.1865 10.5219 20.8999L12.3144 16.0605L17.1538 14.2793C17.4404 14.1738 17.6877 13.983 17.8624 13.7325C18.0371 13.4821 18.1307 13.184 18.1307 12.8787C18.1307 12.5733 18.0371 12.2753 17.8624 12.0248C17.6877 11.7744 17.4404 11.5835 17.1538 11.478L17.15 11.4724ZM11.4707 14.7687C11.3689 14.8062 11.2764 14.8654 11.1997 14.9421C11.123 15.0188 11.0638 15.1112 11.0263 15.213L9.12692 20.359L7.23129 15.2168C7.19383 15.1139 7.13431 15.0205 7.05689 14.9431C6.97947 14.8657 6.88605 14.8061 6.78317 14.7687L1.64098 12.873L6.78317 10.9774C6.88605 10.94 6.97947 10.8804 7.05689 10.803C7.13431 10.7256 7.19383 10.6322 7.23129 10.5293L9.12692 5.38711L11.0225 10.5293C11.0601 10.6311 11.1192 10.7236 11.1959 10.8003C11.2727 10.877 11.3651 10.9362 11.4669 10.9737L16.6129 12.873L11.4707 14.7687ZM12.1269 3.12305C12.1269 2.92413 12.2059 2.73337 12.3466 2.59272C12.4872 2.45206 12.678 2.37305 12.8769 2.37305H14.3769V0.873047C14.3769 0.674134 14.4559 0.483369 14.5966 0.342717C14.7372 0.202064 14.928 0.123047 15.1269 0.123047C15.3258 0.123047 15.5166 0.202064 15.6572 0.342717C15.7979 0.483369 15.8769 0.674134 15.8769 0.873047V2.37305H17.3769C17.5758 2.37305 17.7666 2.45206 17.9072 2.59272C18.0479 2.73337 18.1269 2.92413 18.1269 3.12305C18.1269 3.32196 18.0479 3.51272 17.9072 3.65338C17.7666 3.79403 17.5758 3.87305 17.3769 3.87305H15.8769V5.37305C15.8769 5.57196 15.7979 5.76272 15.6572 5.90338C15.5166 6.04403 15.3258 6.12305 15.1269 6.12305C14.928 6.12305 14.7372 6.04403 14.5966 5.90338C14.4559 5.76272 14.3769 5.57196 14.3769 5.37305V3.87305H12.8769C12.678 3.87305 12.4872 3.79403 12.3466 3.65338C12.2059 3.51272 12.1269 3.32196 12.1269 3.12305ZM21.8769 7.62305C21.8769 7.82196 21.7979 8.01272 21.6572 8.15338C21.5166 8.29403 21.3258 8.37305 21.1269 8.37305H20.3769V9.12305C20.3769 9.32196 20.2979 9.51272 20.1572 9.65338C20.0166 9.79403 19.8258 9.87305 19.6269 9.87305C19.428 9.87305 19.2372 9.79403 19.0966 9.65338C18.9559 9.51272 18.8769 9.32196 18.8769 9.12305V8.37305H18.1269C17.928 8.37305 17.7372 8.29403 17.5966 8.15338C17.4559 8.01272 17.3769 7.82196 17.3769 7.62305C17.3769 7.42413 17.4559 7.23337 17.5966 7.09272C17.7372 6.95206 17.928 6.87305 18.1269 6.87305H18.8769V6.12305C18.8769 5.92413 18.9559 5.73337 19.0966 5.59272C19.2372 5.45206 19.428 5.37305 19.6269 5.37305C19.8258 5.37305 20.0166 5.45206 20.1572 5.59272C20.2979 5.73337 20.3769 5.92413 20.3769 6.12305V6.87305H21.1269C21.3258 6.87305 21.5166 6.95206 21.6572 7.09272C21.7979 7.23337 21.8769 7.42413 21.8769 7.62305Z" fill="#020202"/>
</svg>
